<svg width="18" height="28" viewBox="0 0 18 28" fill="none" xmlns="http://www.w3.org/2000/svg">
<path fill-rule="evenodd" clip-rule="evenodd" d="M9 0C9.55228 0 10 0.447715 10 1L10 27C10 27.5523 9.55229 28 9 28C8.44772 28 8 27.5523 8 27L8 1C8 0.447715 8.44772 0 9 0Z" fill="#00B37E"/>
<path fill-rule="evenodd" clip-rule="evenodd" d="M2.25736 4.75736C3.38258 3.63214 4.9087 3 6.5 3L11 3C11.7879 3 12.5681 3.15519 13.2961 3.45672C14.0241 3.75825 14.6855 4.20021 15.2426 4.75736C15.7998 5.31451 16.2417 5.97595 16.5433 6.7039C16.8448 7.43185 17 8.21207 17 9C17 9.55228 16.5523 10 16 10C15.4477 10 15 9.55228 15 9C15 8.47471 14.8965 7.95457 14.6955 7.46927C14.4945 6.98396 14.1999 6.54301 13.8284 6.17157C13.457 5.80014 13.016 5.5055 12.5307 5.30448C12.0454 5.10346 11.5253 5 11 5L6.5 5C5.43913 5 4.42172 5.42143 3.67157 6.17157C2.92143 6.92172 2.5 7.93913 2.5 9C2.5 10.0609 2.92143 11.0783 3.67157 11.8284C4.42172 12.5786 5.43913 13 6.5 13L12 13C13.5913 13 15.1174 13.6321 16.2426 14.7574C17.3679 15.8826 18 17.4087 18 19C18 20.5913 17.3679 22.1174 16.2426 23.2426C15.1174 24.3679 13.5913 25 12 25H6C4.4087 25 2.88258 24.3679 1.75736 23.2426C0.632141 22.1174 2.86735e-07 20.5913 2.60797e-07 19C2.51795e-07 18.4477 0.447715 18 1 18C1.55229 18 2 18.4477 2 19C2 20.0609 2.42143 21.0783 3.17157 21.8284C3.92172 22.5786 4.93913 23 6 23H12C13.0609 23 14.0783 22.5786 14.8284 21.8284C15.5786 21.0783 16 20.0609 16 19C16 17.9391 15.5786 16.9217 14.8284 16.1716C14.0783 15.4214 13.0609 15 12 15L6.5 15C4.9087 15 3.38258 14.3679 2.25736 13.2426C1.13214 12.1174 0.5 10.5913 0.5 9C0.5 7.4087 1.13214 5.88258 2.25736 4.75736Z" fill="#00B37E"/>
</svg>
