<svg width="26" height="26" viewBox="0 0 26 26" fill="none" xmlns="http://www.w3.org/2000/svg">
<path fill-rule="evenodd" clip-rule="evenodd" d="M13 2C6.92487 2 2 6.92487 2 13C2 19.0751 6.92487 24 13 24C19.0751 24 24 19.0751 24 13C24 6.92487 19.0751 2 13 2ZM2.11898e-07 13C9.48699e-08 5.8203 5.8203 0 13 0C20.1797 0 26 5.8203 26 13C26 20.1797 20.1797 26 13 26C5.8203 26 3.28926e-07 20.1797 2.11898e-07 13Z" fill="#F75A68"/>
<path fill-rule="evenodd" clip-rule="evenodd" d="M8.05547 13.0553C8.44599 12.6648 9.07916 12.6648 9.46968 13.0553L13.0001 16.5857L16.5305 13.0553C16.921 12.6648 17.5542 12.6648 17.9447 13.0553C18.3352 13.4459 18.3352 14.079 17.9447 14.4696L13.7072 18.7071C13.3167 19.0976 12.6835 19.0976 12.293 18.7071L8.05547 14.4696C7.66494 14.079 7.66494 13.4459 8.05547 13.0553Z" fill="#F75A68"/>
<path fill-rule="evenodd" clip-rule="evenodd" d="M13.0001 7C13.5524 7 14.0001 7.44772 14.0001 8L14.0001 18C14.0001 18.5523 13.5524 19 13.0001 19C12.4478 19 12.0001 18.5523 12.0001 18L12.0001 8C12.0001 7.44772 12.4478 7 13.0001 7Z" fill="#F75A68"/>
</svg>
