<svg width="18" height="18" viewBox="0 0 18 18" fill="none" xmlns="http://www.w3.org/2000/svg">
<path fill-rule="evenodd" clip-rule="evenodd" d="M8.0625 2.4375C4.9559 2.4375 2.4375 4.9559 2.4375 8.0625C2.4375 11.1691 4.9559 13.6875 8.0625 13.6875C11.1691 13.6875 13.6875 11.1691 13.6875 8.0625C13.6875 4.9559 11.1691 2.4375 8.0625 2.4375ZM0.5625 8.0625C0.5625 3.92036 3.92036 0.5625 8.0625 0.5625C12.2046 0.5625 15.5625 3.92036 15.5625 8.0625C15.5625 12.2046 12.2046 15.5625 8.0625 15.5625C3.92036 15.5625 0.5625 12.2046 0.5625 8.0625Z" fill="#60CFFA"/>
<path fill-rule="evenodd" clip-rule="evenodd" d="M12.0402 12.0402C12.4063 11.6741 12.9999 11.6741 13.366 12.0402L17.1629 15.8371C17.529 16.2032 17.529 16.7968 17.1629 17.1629C16.7968 17.529 16.2032 17.529 15.8371 17.1629L12.0402 13.366C11.6741 12.9999 11.6741 12.4063 12.0402 12.0402Z" fill="#60CFFA"/>
</svg>
